<?xml version="1.0" encoding="UTF-8"?>
<svg width="24px" height="24px" viewBox="0 0 24 24" version="1.1" xmlns="http://www.w3.org/2000/svg">
    <title>Funny Scale</title>
    <g stroke="none" stroke-width="1" fill="none" fill-rule="evenodd">
        <path d="M19,3 L5,3 C3.9,3 3,3.9 3,5 L3,19 C3,20.1 3.9,21 5,21 L19,21 C20.1,21 21,20.1 21,19 L21,5 C21,3.9 20.1,3 19,3 Z" stroke="#FFFFFF" stroke-width="2" fill="#FFFFFF"></path>
        <circle fill="#FF0000" cx="12" cy="12" r="6"></circle>
        <path d="M9,10 C9.5,11 10.5,11.5 12,11.5 C13.5,11.5 14.5,11 15,10" stroke="#FFFFFF" stroke-width="1.5" stroke-linecap="round"></path>
        <circle fill="#FFFFFF" cx="9" cy="8" r="1.5"></circle>
        <circle fill="#FFFFFF" cx="15" cy="8" r="1.5"></circle>
        <path d="M9,15 C10,16 11,16.5 12,16.5 C13,16.5 14,16 15,15" stroke="#FFFFFF" stroke-width="1.5" stroke-linecap="round" transform="translate(12.000000, 15.750000) scale(1, -1) translate(-12.000000, -15.750000)"></path>
    </g>
</svg>
